<?xml version="1.0" encoding="UTF-8"?>
<svg id="Camada_2" data-name="Camada 2" xmlns="http://www.w3.org/2000/svg" viewBox="0 0 765.96 753.76">
  <defs>
    <style>
      .cls-1 {
        fill: #fff;
      }

      .cls-2 {
        fill: #ff0;
      }
    </style>
  </defs>
  <g id="Camada_1-2" data-name="Camada 1">
    <g>
      <g>
        <polygon class="cls-2" points="350.17 224.81 197.08 377.91 134.7 315.38 225.24 224.81 350.17 224.81"/>
        <polygon class="cls-2" points="632.24 312.21 468.53 475.97 403.02 410.46 495.78 317.7 498.09 315.38 566.73 246.75 632.24 312.21"/>
        <polygon class="cls-2" points="446.52 497.98 381.81 562.64 316.35 497.18 218.39 399.21 283.05 334.51 446.52 497.98"/>
        <polygon class="cls-2" points="544.72 224.81 381.81 387.72 305.08 312.52 392.69 224.81 544.72 224.81"/>
      </g>
      <g>
        <g>
          <path class="cls-1" d="M237.23,100.3l-22.5-43.83-20.49,10.52-6.15-11.97,52.96-27.19,6.15,11.97-20.49,10.52,22.5,43.83-11.97,6.15Z"/>
          <path class="cls-1" d="M274.21,38.52l10.68,40.37-12.34,3.27-14.21-53.71c-1.26-4.76.47-8.34,4.47-9.4,1.92-.51,3.6-.24,5.9,1.03l49.79,27.61-10.68-40.37,12.43-3.29,14.37,54.3c1.28,4.84-.62,8.46-4.45,9.48-2,.53-3.79.2-6-1.09l-49.94-28.2Z"/>
          <path class="cls-1" d="M362.44,64.04l-1.85-49.22-23.02.86-.5-13.45,59.48-2.23.5,13.45-23.02.86,1.85,49.23-13.45.5Z"/>
          <path class="cls-1" d="M427.31,65.49l14-61.14,52.73,12.07-3,13.12-39.69-9.09-11,48.02-13.03-2.98ZM453.56,45.93l2.54-11.1,29.52,6.76-2.54,11.1-29.52-6.76Z"/>
          <path class="cls-1" d="M484.79,80.53l22.02-58.72,12.6,4.73-22.02,58.72-12.6-4.73Z"/>
          <path class="cls-1" d="M522.82,96.8l23.36-43.37-20.28-10.93,6.38-11.85,52.41,28.23-6.38,11.85-20.28-10.92-23.36,43.37-11.85-6.38Z"/>
        </g>
        <g>
          <path class="cls-1" d="M45.34,193.4c8.2-15.87,26.49-21.18,42.66-12.82,16.4,8.48,21.27,25.75,13.07,41.62l-15.89,30.74-11.96-6.18,15.89-30.74c4.64-8.97,1.37-19.01-7.9-23.8-9.2-4.75-19.23-1.68-23.91,7.36l-15.89,30.74-11.96-6.18,15.89-30.74Z"/>
          <path class="cls-1" d="M22.72,242.85l60.47,16.63-15.1,54.9-12.98-3.57,11.55-42.01-34.52-9.49-11.57,42.09-12.98-3.57,15.12-54.98ZM42.71,270.36l10.23,2.81-8.83,32.11-10.23-2.81,8.83-32.11Z"/>
          <path class="cls-1" d="M44.95,333.05l-41.7-2.12.65-12.75,55.49,2.83c4.91.25,7.8,2.99,7.59,7.13-.1,1.98-.87,3.5-2.77,5.3l-41.47,39.01,41.7,2.13-.65,12.84-56.09-2.86c-5-.26-7.87-3.17-7.67-7.13.11-2.07.96-3.67,2.86-5.38l42.07-38.98Z"/>
          <path class="cls-1" d="M5.62,425.01l48.62-7.95-3.72-22.73,13.28-2.17,9.6,58.75-13.28,2.17-3.72-22.73-48.62,7.95-2.17-13.28Z"/>
          <path class="cls-1" d="M36.73,531.32l10.21-20.51-7.22-18.11,10.66-4.25,9.01,22.6c2.43,6.09,7.38,8.02,13.55,5.56,6.17-2.46,8.05-7.3,5.69-13.23l-11.92-29.89-45.76,18.25-4.95-12.42,58.27-23.24,16.88,42.32c5.43,13.63.24,25.08-12.98,30.35-9.54,3.8-17.98,1.97-23.77-4.18l-10.58,24.47-7.06-17.71Z"/>
          <path class="cls-1" d="M69.55,587.7c-10.45-14.48-6.93-33.19,7.83-43.85,14.97-10.81,32.58-7.34,43.03,7.14l9.09,12.59c10.81,14.97,8.14,32.65-6.62,43.3-14.76,10.66-33.63,8.1-44.23-6.59l-9.09-12.59ZM89.55,592.42c6.11,8.47,16.49,10.02,24.88,3.96,8.47-6.11,10.26-16.45,4.15-24.92l-9.09-12.59c-5.91-8.19-16.34-9.81-24.8-3.7-8.4,6.06-10.19,16.4-4.23,24.66l9.09,12.59Z"/>
          <path class="cls-1" d="M134.8,661.97l36.4-51.07,30.07,21.43c14.68,10.46,18.03,28.21,7.46,43.04-10.57,14.82-29.19,18.5-43.87,8.04l-30.07-21.43ZM172.68,672.45c8.29,5.91,18.69,4.1,24.7-4.33,6.06-8.5,4.37-18.92-3.92-24.83l-19.18-13.67-20.78,29.15,19.18,13.67Z"/>
          <path class="cls-1" d="M208.47,710.77l24.51-57.74,52.42,22.26-5.26,12.39-40.11-17.03-13.99,32.96,40.19,17.06-5.26,12.39-52.5-22.29ZM238.4,694.6l4.15-9.77,30.66,13.02-4.15,9.77-30.66-13.02Z"/>
          <path class="cls-1" d="M328.34,748.2l6.27-48.86-22.85-2.93,1.71-13.35,59.05,7.57-1.71,13.35-22.85-2.93-6.27,48.86-13.35-1.71Z"/>
          <path class="cls-1" d="M439.16,748.62l-16.78-15.61-19.42,1.79-1.05-11.43,24.23-2.23c6.53-.6,9.78-4.8,9.17-11.42-.61-6.61-4.72-9.79-11.07-9.2l-32.05,2.95,4.52,49.06-13.32,1.23-5.76-62.47,45.37-4.18c14.61-1.34,24.12,6.88,25.42,21.06.94,10.23-3.21,17.8-10.75,21.61l20.47,17.09-18.99,1.75Z"/>
          <path class="cls-1" d="M475.11,741.96l-19.45-59.64,54.14-17.66,4.17,12.8-41.42,13.51,11.1,34.04,41.51-13.54,4.17,12.8-54.22,17.68ZM487.05,710.12l-3.29-10.09,31.66-10.33,3.29,10.09-31.66,10.32Z"/>
          <path class="cls-1" d="M544.4,716.52l-27.45-56.4,12.1-5.89,27.45,56.4-12.1,5.89Z"/>
          <path class="cls-1" d="M560.65,661.17l23.79,34.32-10.49,7.28-31.66-45.67c-2.8-4.04-2.4-8,1.01-10.36,1.63-1.13,3.3-1.45,5.89-1.04l56.22,9.01-23.79-34.32,10.57-7.32,32,46.16c2.85,4.11,2.3,8.17-.96,10.43-1.7,1.18-3.49,1.48-6.01,1.02l-56.56-9.5Z"/>
          <path class="cls-1" d="M688.41,601.42l-16.97-3.1-17.39,19.98-3.86-11.47,9.29-10.67-22.11-4.03,16.38,49.13-10.02,11.52-21.33-65.79c-.93-2.87-.93-5.5.99-7.71s4.53-2.58,7.5-2.05l68.11,12.02-10.59,12.17Z"/>
          <path class="cls-1" d="M743.72,500.63l-40.25-7.35,25.13,30.11c2.24,2.75,3.05,5.31,1.67,8.29-1.34,2.9-3.89,4.09-7.41,4.08l-39.18.19,31.64,25.9-5.55,11.98-46.22-38.37c-2.89-2.39-3.62-5.11-2.17-8.24,1.16-2.5,3.74-4.16,6.9-4.22l44-.13-28.32-33.68c-2.04-2.37-2.58-5.1-1.39-7.68,1.38-2.97,3.93-4.17,7.62-3.5l59.1,10.58-5.59,12.05Z"/>
          <path class="cls-1" d="M753.35,468.27l-61.64-11.64,10.56-55.96,13.23,2.5-8.09,42.82,35.19,6.64,8.1-42.9,13.23,2.5-10.58,56.04ZM731.18,442.48l-10.43-1.97,6.18-32.73,10.43,1.97-6.18,32.73Z"/>
          <path class="cls-1" d="M723.82,380.16l41.73-1.32.41,12.76-55.53,1.76c-4.91.16-8.01-2.34-8.14-6.47-.06-1.98.58-3.56,2.33-5.51l38.11-42.29-41.74,1.32-.4-12.85,56.14-1.77c5-.16,8.11,2.51,8.23,6.47.06,2.07-.66,3.73-2.41,5.6l-38.71,42.31Z"/>
          <path class="cls-1" d="M755.5,285.3l-47.81,11.88,5.56,22.36-13.06,3.25-14.35-57.78,13.06-3.25,5.56,22.36,47.81-11.88,3.24,13.06Z"/>
          <path class="cls-1" d="M728.47,207.28c7.96,15.99,1.45,33.88-14.85,42-16.53,8.23-33.34,1.95-41.3-14.04l-6.92-13.9c-8.23-16.53-2.72-33.54,13.57-41.65,16.3-8.11,34.5-2.53,42.58,13.69l6.92,13.9ZM709.5,199.38c-4.65-9.35-14.64-12.57-23.91-7.95-9.35,4.65-12.8,14.56-8.14,23.91l6.92,13.9c4.5,9.04,14.52,12.33,23.87,7.68,9.27-4.62,12.72-14.53,8.18-23.64l-6.92-13.9Z"/>
        </g>
        <circle class="cls-1" cx="139.21" cy="121.49" r="13.77"/>
        <circle class="cls-1" cx="627.73" cy="121.49" r="13.77"/>
      </g>
    </g>
  </g>
</svg>